<?xml version="1.0" encoding="iso-8859-1"?>
<!-- Generator: Adobe Illustrator 19.0.0, SVG Export Plug-In . SVG Version: 6.00 Build 0)  -->
<svg version="1.1" id="Capa_1" xmlns="http://www.w3.org/2000/svg" xmlns:xlink="http://www.w3.org/1999/xlink" x="0px" y="0px"
	 viewBox="0 0 477.867 477.867" style="enable-background:new 0 0 477.867 477.867;" xml:space="preserve">
<g>
	<g>
		<path d="M238.933,0C106.974,0,0,106.974,0,238.933s106.974,238.933,238.933,238.933s238.933-106.974,238.933-238.933
			S370.893,0,238.933,0z M320.357,403.926c-6.167,7.128-16.945,7.907-24.073,1.739c-0.17-0.147-0.337-0.298-0.501-0.451
			l-170.667-153.6c-7.003-6.309-7.566-17.1-1.258-24.103c0.397-0.441,0.817-0.861,1.258-1.258l170.667-153.6
			c6.879-6.444,17.679-6.092,24.123,0.787c6.444,6.879,6.092,17.679-0.787,24.123c-0.164,0.154-0.331,0.304-0.501,0.451
			L162.133,238.933l156.484,140.919C325.746,386.02,326.524,396.798,320.357,403.926z"/>
	</g>
</g>
<g>
</g>
<g>
</g>
<g>
</g>
<g>
</g>
<g>
</g>
<g>
</g>
<g>
</g>
<g>
</g>
<g>
</g>
<g>
</g>
<g>
</g>
<g>
</g>
<g>
</g>
<g>
</g>
<g>
</g>
</svg>
