<?xml version="1.0" encoding="iso-8859-1"?>
<!-- Generator: Adobe Illustrator 19.0.0, SVG Export Plug-In . SVG Version: 6.00 Build 0)  -->
<svg version="1.1" id="Capa_1" xmlns="http://www.w3.org/2000/svg" xmlns:xlink="http://www.w3.org/1999/xlink" x="0px" y="0px"
	 viewBox="0 0 477.867 477.867" style="enable-background:new 0 0 477.867 477.867;" xml:space="preserve">
<g>
	<g>
		<path d="M238.933,0C106.974,0,0,106.974,0,238.933s106.974,238.933,238.933,238.933s238.933-106.974,238.933-238.933
			S370.893,0,238.933,0z M354.009,250.356c-0.397,0.441-0.817,0.861-1.258,1.258l-170.667,153.6
			c-7.128,6.167-17.906,5.389-24.073-1.739c-5.996-6.93-5.449-17.357,1.238-23.622l156.57-140.919L159.249,98.014
			c-6.879-6.444-7.231-17.244-0.787-24.123c6.265-6.687,16.693-7.234,23.622-1.238l170.667,153.6
			C359.754,232.561,360.317,243.353,354.009,250.356z"/>
	</g>
</g>
<g>
</g>
<g>
</g>
<g>
</g>
<g>
</g>
<g>
</g>
<g>
</g>
<g>
</g>
<g>
</g>
<g>
</g>
<g>
</g>
<g>
</g>
<g>
</g>
<g>
</g>
<g>
</g>
<g>
</g>
</svg>
