<?xml version="1.0" encoding="iso-8859-1"?>
<!-- Generator: Adobe Illustrator 19.0.0, SVG Export Plug-In . SVG Version: 6.00 Build 0)  -->
<svg version="1.1" id="Capa_1" xmlns="http://www.w3.org/2000/svg" x="0px"
	 y="0px"
	 viewBox="0 0 512 512" style="enable-background:new 0 0 512 512;" xml:space="preserve">
<g>
	<g>
		<path fill="#fff" d="M0,61v390h512V61H0z M482,421H51.213L155,317.213l61,61l180-180l86,86V421z M482,241.787l-86-86l-180,180l-61-61l-125,125
			V91h452V241.787z"/>
	</g>
</g>
    <g>
	<g>
		<path fill="#fff" d="M155,121c-33.084,0-60,26.916-60,60s26.916,60,60,60s60-26.916,60-60S188.084,121,155,121z M155,211
			c-16.542,0-30-13.458-30-30s13.458-30,30-30s30,13.458,30,30S171.542,211,155,211z"/>
	</g>
</g>
    <g>
</g>
    <g>
</g>
    <g>
</g>
    <g>
</g>
    <g>
</g>
    <g>
</g>
    <g>
</g>
    <g>
</g>
    <g>
</g>
    <g>
</g>
    <g>
</g>
    <g>
</g>
    <g>
</g>
    <g>
</g>
    <g>
</g>
</svg>
