<?xml version="1.0" encoding="iso-8859-1"?>
<!-- Generator: Adobe Illustrator 16.0.0, SVG Export Plug-In . SVG Version: 6.00 Build 0)  -->
<!DOCTYPE svg PUBLIC "-//W3C//DTD SVG 1.1//EN" "http://www.w3.org/Graphics/SVG/1.1/DTD/svg11.dtd">
<svg version="1.1" id="Capa_1" xmlns="http://www.w3.org/2000/svg" xmlns:xlink="http://www.w3.org/1999/xlink" x="0px" y="0px"
	 width="55.999px" height="55.999px" viewBox="0 0 55.999 55.999" style="enable-background:new 0 0 55.999 55.999;"
	 xml:space="preserve">
<g>
	<g>
		<g>
			<path fill="#fff" d="M49.33,53.083H6.669C2.991,53.083,0,50.092,0,46.413V18.419c0-3.678,2.992-6.67,6.669-6.67H49.33
				c3.678,0,6.669,2.992,6.669,6.67v27.994C55.999,50.092,53.008,53.083,49.33,53.083z M6.669,13.749
				C4.094,13.749,2,15.845,2,18.419v27.994c0,2.575,2.095,4.67,4.669,4.67H49.33c2.575,0,4.669-2.095,4.669-4.67V18.419
				c0-2.574-2.095-4.67-4.669-4.67H6.669z"/>
		</g>
		<g>
			<path fill="#fff" d="M48.874,8.916H7.124c-0.552,0-1-0.448-1-1c0-0.552,0.448-1,1-1h41.75c0.552,0,1,0.448,1,1
				C49.874,8.468,49.428,8.916,48.874,8.916z"/>
		</g>
		<g>
			<path fill="#fff" d="M44.999,4.916h-34c-0.552,0-1-0.448-1-1c0-0.552,0.448-1,1-1h34c0.552,0,1,0.448,1,1
				C45.999,4.468,45.553,4.916,44.999,4.916z"/>
		</g>
	</g>
</g>
<g>
</g>
<g>
</g>
<g>
</g>
<g>
</g>
<g>
</g>
<g>
</g>
<g>
</g>
<g>
</g>
<g>
</g>
<g>
</g>
<g>
</g>
<g>
</g>
<g>
</g>
<g>
</g>
<g>
</g>
</svg>
