<?xml version="1.0" encoding="iso-8859-1"?>
<!-- Generator: Adobe Illustrator 19.0.0, SVG Export Plug-In . SVG Version: 6.00 Build 0)  -->
<svg version="1.1" id="Capa_1" xmlns="http://www.w3.org/2000/svg" xmlns:xlink="http://www.w3.org/1999/xlink" x="0px" y="0px"
	 viewBox="0 0 512 512" style="enable-background:new 0 0 512 512;" xml:space="preserve" fill="#fafafa">
<g>
	<g>
		<path d="M418.116,204.8H93.875c-18.825,0-34.142,15.317-34.142,34.15V477.85c0,18.833,15.309,34.15,34.142,34.15h324.241
			c18.825,0,34.142-15.317,34.142-34.15V238.95C452.258,220.117,436.949,204.8,418.116,204.8z M435.183,477.85
			c0,9.421-7.654,17.084-17.075,17.084H93.867c-9.412,0-17.075-7.663-17.075-17.084V238.95c0-9.421,7.654-17.084,17.075-17.084
			h324.241c9.412,0,17.075,7.663,17.075,17.084V477.85z"/>
	</g>
</g>
<g>
	<g>
		<path d="M255.991,0C180.71,0,119.458,61.252,119.458,136.533v76.8c0,4.719,3.823,8.533,8.533,8.533h256
			c4.71,0,8.533-3.814,8.533-8.533v-76.8C392.525,61.252,331.273,0,255.991,0z M375.458,204.8H136.525v-68.267
			c0-65.877,53.589-119.467,119.467-119.467s119.467,53.589,119.467,119.467V204.8z"/>
	</g>
</g>
<g>
	<g>
		<path d="M255.991,34.133c-56.465,0-102.4,45.935-102.4,102.4v76.8c0,4.719,3.823,8.533,8.533,8.533h187.733
			c4.71,0,8.533-3.814,8.533-8.533v-76.8C358.392,80.068,312.457,34.133,255.991,34.133z M341.325,204.8H170.658v-68.267
			c0-47.053,38.281-85.333,85.333-85.333s85.333,38.281,85.333,85.333V204.8z"/>
	</g>
</g>
<g>
	<g>
		<path d="M443.733,426.667H68.267c-4.71,0-8.533,3.814-8.533,8.533v42.65c0,18.833,15.309,34.15,34.142,34.15h324.241
			c18.825,0,34.142-15.317,34.15-34.15V435.2C452.267,430.481,448.444,426.667,443.733,426.667z M435.183,477.85
			c0,9.421-7.654,17.084-17.075,17.084H93.867c-9.412,0-17.075-7.663-17.075-17.084v-34.116h358.391V477.85z"/>
	</g>
</g>
<g>
	<g>
		<path d="M282.513,265.233c-10.266-8.141-23.62-11.076-36.625-8.073c-15.266,3.55-27.537,15.676-31.266,30.899
			c-4.173,17.033,2.125,34.338,15.77,44.57v34.304c0,14.114,11.486,25.6,25.6,25.6s25.6-11.486,25.6-25.6v-34.321
			c10.633-8.013,17.067-20.617,17.067-33.954C298.658,285.568,292.77,273.382,282.513,265.233z M268.766,320.691
			c-2.628,1.527-4.241,4.343-4.241,7.373v38.869c0,4.71-3.831,8.533-8.533,8.533s-8.533-3.823-8.533-8.533v-38.869
			c0-3.038-1.613-5.845-4.241-7.373c-10.112-5.888-14.831-17.101-12.023-28.57c2.185-8.892,9.634-16.256,18.551-18.33
			c2.116-0.495,4.224-0.734,6.298-0.734c5.777,0,11.255,1.894,15.855,5.547c6.161,4.898,9.694,12.203,9.694,20.062
			C281.591,307.78,276.796,316.015,268.766,320.691z"/>
	</g>
</g>
<g>
</g>
<g>
</g>
<g>
</g>
<g>
</g>
<g>
</g>
<g>
</g>
<g>
</g>
<g>
</g>
<g>
</g>
<g>
</g>
<g>
</g>
<g>
</g>
<g>
</g>
<g>
</g>
<g>
</g>
</svg>
