<?xml version="1.0" encoding="iso-8859-1"?>
<!-- Generator: Adobe Illustrator 19.0.0, SVG Export Plug-In . SVG Version: 6.00 Build 0)  -->
<svg version="1.1" id="Capa_1" xmlns="http://www.w3.org/2000/svg" xmlns:xlink="http://www.w3.org/1999/xlink" x="0px" y="0px"
	 viewBox="0 0 512.009 512.009" style="enable-background:new 0 0 512.009 512.009;" xml:space="preserve" fill="#fafafa">
<g>
	<g>
		<path d="M477.858,204.804H153.617c-18.825,0-34.142,15.317-34.142,34.15v238.899c0,18.833,15.309,34.15,34.142,34.15h324.241
			c18.825,0,34.142-15.317,34.142-34.15V238.955C512,220.122,496.691,204.804,477.858,204.804z M494.925,477.854
			c0,9.421-7.654,17.084-17.075,17.084H153.609c-9.412,0-17.075-7.663-17.075-17.084V238.955c0-9.421,7.654-17.084,17.075-17.084
			H477.85c9.412,0,17.075,7.663,17.075,17.084V477.854z"/>
	</g>
</g>
<g>
	<g>
		<path d="M136.533,0.004C61.252,0.004,0,61.257,0,136.538v76.8c0,4.719,3.823,8.533,8.533,8.533h34.133
			c4.71,0,8.533-3.814,8.533-8.533v-76.8c0-47.053,38.281-85.333,85.333-85.333s85.333,38.281,85.333,85.333v76.8
			c0,4.719,3.823,8.533,8.533,8.533h34.133c4.71,0,8.533-3.814,8.533-8.533v-76.8C273.067,61.257,211.814,0.004,136.533,0.004z
			 M256,204.804h-17.067v-68.267c0-56.465-45.935-102.4-102.4-102.4c-56.465,0-102.4,45.935-102.4,102.4v68.267H17.067v-68.267
			c0-65.877,53.589-119.467,119.467-119.467S256,70.66,256,136.538V204.804z"/>
	</g>
</g>
<g>
	<g>
		<path d="M503.475,426.671H128.009c-4.71,0-8.533,3.814-8.533,8.533v42.65c0,18.833,15.309,34.15,34.142,34.15h324.241
			c18.825,0,34.142-15.317,34.15-34.15v-42.65C512.009,430.485,508.186,426.671,503.475,426.671z M494.925,477.854
			c0,9.421-7.654,17.084-17.075,17.084H153.609c-9.412,0-17.075-7.663-17.075-17.084v-34.116h358.391V477.854z"/>
	</g>
</g>
<g>
	<g>
		<path d="M342.255,265.237c-10.266-8.141-23.62-11.076-36.625-8.073c-15.266,3.55-27.537,15.676-31.266,30.899
			c-4.173,17.033,2.125,34.338,15.77,44.57v34.304c0,14.114,11.486,25.6,25.6,25.6s25.6-11.486,25.6-25.6v-34.321
			C351.966,324.604,358.4,312,358.4,298.662C358.4,285.572,352.512,273.387,342.255,265.237z M328.508,320.695
			c-2.628,1.527-4.241,4.343-4.241,7.373v38.869c0,4.71-3.831,8.533-8.533,8.533s-8.533-3.823-8.533-8.533v-38.869
			c0-3.038-1.613-5.845-4.241-7.373c-10.112-5.888-14.831-17.101-12.023-28.57c2.185-8.892,9.634-16.256,18.551-18.33
			c2.116-0.495,4.224-0.734,6.298-0.734c5.777,0,11.255,1.894,15.855,5.547c6.161,4.898,9.694,12.203,9.694,20.062
			C341.333,307.785,336.538,316.019,328.508,320.695z"/>
	</g>
</g>
<g>
</g>
<g>
</g>
<g>
</g>
<g>
</g>
<g>
</g>
<g>
</g>
<g>
</g>
<g>
</g>
<g>
</g>
<g>
</g>
<g>
</g>
<g>
</g>
<g>
</g>
<g>
</g>
<g>
</g>
</svg>
