<svg id="Capa_1" enable-background="new 0 0 512 512" height="512" viewBox="0 0 512 512" width="512"
     xmlns="http://www.w3.org/2000/svg">
    <g>
        <path fill="#fff"
              d="m497 60.25h-482c-8.284 0-15 6.716-15 15v90.375c0 8.284 6.716 15 15 15h15.125v256.125c0 8.284 6.716 15 15 15h421.75c8.284 0 15-6.716 15-15v-256.125h15.125c8.284 0 15-6.716 15-15v-90.375c0-8.284-6.716-15-15-15zm-45.125 361.5h-391.75v-241.125h391.75zm30.125-271.125h-452v-60.375h452z"/>
        <path fill="#fff"
              d="m225.875 301.125h60.25c24.882 0 45.125-20.243 45.125-45.125s-20.243-45.125-45.125-45.125h-60.25c-24.882 0-45.125 20.243-45.125 45.125s20.243 45.125 45.125 45.125zm0-60.25h60.25c8.34 0 15.125 6.785 15.125 15.125s-6.785 15.125-15.125 15.125h-60.25c-8.34 0-15.125-6.785-15.125-15.125s6.785-15.125 15.125-15.125z"/>
    </g>
</svg>
